<svg aria-hidden="true" style="position: absolute; width: 0; height: 0; overflow: hidden;" version="1.1" xmlns="http://www.w3.org/2000/svg" xmlns:xlink="http://www.w3.org/1999/xlink">
<defs>
<symbol id="icon-menu" viewBox="0 0 106 32">
<path fill="#d9d9d9" style="fill: var(--color1, #d9d9d9)" d="M3.95 0.615h98.462c1.699 0 3.077 1.378 3.077 3.077s-1.378 3.077-3.077 3.077h-98.462c-1.699 0-3.077-1.378-3.077-3.077s1.378-3.077 3.077-3.077z"></path>
<path fill="#d9d9d9" style="fill: var(--color1, #d9d9d9)" d="M3.95 12.923h98.462c1.699 0 3.077 1.378 3.077 3.077s-1.378 3.077-3.077 3.077h-98.462c-1.699 0-3.077-1.378-3.077-3.077s1.378-3.077 3.077-3.077z"></path>
<path fill="#d9d9d9" style="fill: var(--color1, #d9d9d9)" d="M3.95 25.231h98.462c1.699 0 3.077 1.378 3.077 3.077s-1.378 3.077-3.077 3.077h-98.462c-1.699 0-3.077-1.378-3.077-3.077s1.378-3.077 3.077-3.077z"></path>
</symbol>
</defs>
</svg>
