<svg width="503" height="66" viewBox="0 0 503 66" fill="none" xmlns="http://www.w3.org/2000/svg">
<g clip-path="url(#clip0_13_47)">
<path d="M63.0525 51.175L67.4562 49.5251L82.5938 12.95H84.2451L99.9332 50.35L102.686 51.175V52H96.08C94.1717 52 92.6121 51.5784 91.4011 50.7351C90.1901 49.855 89.2911 48.7183 88.7039 47.3251L85.8965 40.725H72.7406L69.1075 49.5251L73.236 51.175V52H63.0525V51.175ZM73.291 39.35H85.3461L79.291 24.885L73.291 39.35ZM118.632 52.8251C113.934 52.8251 110.283 51.5417 107.678 48.975C105.072 46.3717 103.769 42.7967 103.769 38.25C103.769 35.2801 104.338 32.695 105.476 30.495C106.613 28.295 108.191 26.6083 110.21 25.435C112.264 24.2617 114.613 23.675 117.256 23.675C119.898 23.675 122.21 24.17 124.191 25.16C126.209 26.15 127.75 27.4883 128.815 29.175C129.916 30.825 130.467 32.6583 130.467 34.675C130.467 35.5917 130.375 36.3801 130.191 37.0401L129.916 37.975C128.338 38.305 126.631 38.58 124.797 38.8C120.944 39.35 117.053 39.625 113.127 39.625C113.127 43.8783 113.714 46.9217 114.889 48.7551C116.063 50.5518 117.677 51.4501 119.733 51.4501C121.164 51.4501 122.485 51.12 123.696 50.46C124.943 49.7633 125.916 48.865 126.613 47.765C127.347 46.6283 127.714 45.4734 127.714 44.3H129.091C129.091 45.7668 128.65 47.16 127.769 48.48C126.889 49.8 125.659 50.8633 124.081 51.67C122.503 52.44 120.687 52.8251 118.632 52.8251ZM113.127 38.25C115.475 38.25 117.384 38.1583 118.852 37.975C119.476 37.9383 120.136 37.8468 120.834 37.7001C120.87 37.5168 120.962 37.1134 121.109 36.4901C121.292 35.5734 121.384 34.6017 121.384 33.5751C121.384 30.5317 120.98 28.3133 120.173 26.92C119.365 25.49 118.393 24.775 117.256 24.775C114.503 24.775 113.127 29.2668 113.127 38.25ZM147.507 52.8251C145.232 52.8251 143.195 52.3301 141.397 51.34C140.516 50.8633 139.8 50.35 139.25 49.8C138.663 50.6068 138.021 51.23 137.323 51.67C136.993 51.89 136.627 52.0918 136.222 52.2751H134.846V42.925H137.048C137.526 44.465 138.223 45.8951 139.14 47.215C141.086 50.0383 143.508 51.4501 146.406 51.4501C147.947 51.4501 149.103 51.0833 149.874 50.35C150.682 49.58 151.085 48.48 151.085 47.05C151.085 45.84 150.534 44.8318 149.433 44.0251C148.37 43.1818 146.681 42.155 144.369 40.945C142.388 39.955 140.773 39.0751 139.525 38.305C138.314 37.4984 137.268 36.5083 136.388 35.335C135.544 34.125 135.122 32.7133 135.122 31.1C135.122 28.9 136.057 27.1217 137.929 25.765C139.837 24.3717 142.755 23.675 146.681 23.675C148.627 23.675 150.424 24.1883 152.076 25.215C152.883 25.6917 153.581 26.1867 154.167 26.7C154.645 26.04 155.287 25.4167 156.094 24.83C156.719 24.4633 157.085 24.2617 157.195 24.225H158.571V33.5751H156.369C155.819 31.9984 155.14 30.5868 154.333 29.34C152.498 26.4801 150.314 25.05 147.782 25.05C146.791 25.05 145.948 25.4167 145.25 26.15C144.553 26.8833 144.204 27.8 144.204 28.9C144.204 30.2933 144.792 31.4667 145.966 32.42C147.141 33.3367 148.92 34.4001 151.305 35.6101C153.251 36.6 154.792 37.48 155.929 38.25C157.104 38.9833 158.095 39.9 158.901 41C159.746 42.1 160.167 43.3833 160.167 44.85C160.167 50.1667 155.948 52.8251 147.507 52.8251ZM178.61 52.8251C176.188 52.8251 174.078 52.3851 172.28 51.5051C170.518 50.625 169.161 49.4151 168.206 47.875C167.252 46.335 166.775 44.5934 166.775 42.6501V25.875H162.922V24.5H166.775V21.75C166.775 18.45 168.426 16.8 171.729 16.8H175.582V24.5H183.289V25.875H175.582V42.6501C175.582 46.0233 175.932 48.3334 176.628 49.5801C177.326 50.8268 178.354 51.4501 179.711 51.4501C181.032 51.4501 182.188 50.8083 183.179 49.5251C184.169 48.2418 184.665 46.5 184.665 44.3H186.041C186.041 47.0133 185.362 49.1217 184.004 50.625C182.647 52.0918 180.849 52.8251 178.61 52.8251ZM189.08 51.175L192.382 50.35V15.15L189.08 14.325V13.5H196.235C199.538 13.5 201.19 15.15 201.19 18.45V27.25C201.74 26.5167 202.309 25.93 202.896 25.49C204.474 24.28 206.291 23.675 208.346 23.675C210.4 23.675 212.236 24.115 213.85 24.995C215.502 25.8383 216.786 26.9567 217.703 28.35C218.621 29.7433 219.08 31.21 219.08 32.75V50.35L222.382 51.175V52H215.226C211.924 52 210.272 50.35 210.272 47.05V32.75C210.272 30.4401 209.85 28.68 209.006 27.47C208.198 26.2233 207.245 25.6 206.144 25.6C204.75 25.6 203.502 26.3333 202.401 27.8C201.923 28.4233 201.52 29.1567 201.19 30V50.35L204.492 51.175V52H189.08V51.175ZM240.549 52.8251C235.852 52.8251 232.201 51.5417 229.595 48.975C226.99 46.3717 225.687 42.7967 225.687 38.25C225.687 35.2801 226.257 32.695 227.393 30.495C228.531 28.295 230.11 26.6083 232.127 25.435C234.183 24.2617 236.531 23.675 239.173 23.675C241.815 23.675 244.127 24.17 246.109 25.16C248.128 26.15 249.669 27.4883 250.733 29.175C251.834 30.825 252.384 32.6583 252.384 34.675C252.384 35.5917 252.293 36.3801 252.109 37.0401L251.834 37.975C250.256 38.305 248.55 38.58 246.715 38.8C242.861 39.35 238.972 39.625 235.045 39.625C235.045 43.8783 235.632 46.9217 236.806 48.7551C237.981 50.5518 239.596 51.4501 241.65 51.4501C243.082 51.4501 244.403 51.12 245.614 50.46C246.862 49.7633 247.834 48.865 248.531 47.765C249.266 46.6283 249.632 45.4734 249.632 44.3H251.008C251.008 45.7668 250.568 47.16 249.687 48.48C248.806 49.8 247.577 50.8633 245.999 51.67C244.422 52.44 242.605 52.8251 240.549 52.8251ZM235.045 38.25C237.394 38.25 239.302 38.1583 240.77 37.975C241.394 37.9383 242.055 37.8468 242.751 37.7001C242.788 37.5168 242.88 37.1134 243.026 36.4901C243.211 35.5734 243.302 34.6017 243.302 33.5751C243.302 30.5317 242.898 28.3133 242.091 26.92C241.284 25.49 240.311 24.775 239.173 24.775C236.421 24.775 235.045 29.2668 235.045 38.25ZM270.802 52.8251C268.38 52.8251 266.269 52.3851 264.471 51.5051C262.71 50.625 261.352 49.4151 260.398 47.875C259.443 46.335 258.967 44.5934 258.967 42.6501V25.875H255.114V24.5H258.967V21.75C258.967 18.45 260.618 16.8 263.921 16.8H267.774V24.5H275.481V25.875H267.774V42.6501C267.774 46.0233 268.122 48.3334 268.82 49.5801C269.517 50.8268 270.544 51.4501 271.903 51.4501C273.224 51.4501 274.38 50.8083 275.37 49.5251C276.361 48.2418 276.857 46.5 276.857 44.3H278.233C278.233 47.0133 277.553 49.1217 276.196 50.625C274.838 52.0918 273.039 52.8251 270.802 52.8251ZM281.27 51.175L284.573 50.35V26.15L281.27 25.325V24.5H288.426C291.729 24.5 293.38 26.1501 293.38 29.4501V50.35L296.683 51.175V52H281.27V51.175ZM288.426 21.2C287.325 21.2 286.409 20.8333 285.674 20.1C284.94 19.3667 284.573 18.45 284.573 17.35C284.573 16.25 284.94 15.3333 285.674 14.6C286.409 13.8667 287.325 13.5 288.426 13.5C289.527 13.5 290.445 13.8667 291.179 14.6C291.913 15.3333 292.28 16.25 292.28 17.35C292.28 18.45 291.913 19.3667 291.179 20.1C290.445 20.8333 289.527 21.2 288.426 21.2ZM314.84 52.8251C310.142 52.8251 306.491 51.5417 303.886 48.975C301.28 46.3717 299.978 42.7967 299.978 38.25C299.978 33.7034 301.28 30.1467 303.886 27.58C306.491 24.9767 310.142 23.675 314.84 23.675C318.216 23.675 320.748 24.2617 322.437 25.435C324.161 26.6083 325.024 28.0383 325.024 29.725C325.024 30.9717 324.638 31.98 323.868 32.75C323.133 33.4833 322.142 33.85 320.895 33.85C320.381 33.85 319.867 33.8134 319.354 33.7401L318.694 33.5751V25.325L317.923 25.05C317.372 24.8667 316.712 24.775 315.941 24.775C313.849 24.775 312.216 25.765 311.042 27.745C309.904 29.725 309.336 33.2267 309.336 38.25C309.336 43.1267 309.904 46.555 311.042 48.535C312.216 50.4783 313.849 51.4501 315.941 51.4501C317.372 51.4501 318.694 51.12 319.905 50.46C321.152 49.7633 322.124 48.865 322.822 47.765C323.556 46.6283 323.923 45.4734 323.923 44.3H325.299C325.299 45.7668 324.859 47.16 323.978 48.48C323.097 49.8 321.867 50.8633 320.29 51.67C318.712 52.44 316.895 52.8251 314.84 52.8251ZM358.632 52.8251C356.026 52.8251 353.586 52.2383 351.311 51.065C350.283 50.5517 349.42 49.9468 348.724 49.25C348.209 50.0933 347.568 50.8451 346.797 51.5051C346.136 51.9818 345.769 52.2383 345.696 52.2751H344.32V41.8251H346.522C347.072 43.6217 347.843 45.2351 348.834 46.6651C351.072 49.855 353.971 51.4501 357.531 51.4501C359.623 51.4501 361.292 50.8268 362.54 49.5801C363.787 48.3334 364.412 46.6651 364.412 44.5751C364.412 43.3651 364.044 42.2834 363.311 41.3301C362.613 40.3768 361.732 39.5333 360.669 38.8C359.604 38.0667 358.117 37.15 356.21 36.05C353.788 34.6933 351.824 33.4651 350.32 32.3651C348.815 31.2651 347.531 29.89 346.467 28.24C345.402 26.5533 344.87 24.5733 344.87 22.3C344.87 20.5033 345.366 18.89 346.357 17.46C347.383 15.9933 348.907 14.8383 350.925 13.995C352.943 13.115 355.42 12.675 358.357 12.675C360.484 12.675 362.613 13.28 364.742 14.49C365.549 14.93 366.356 15.5167 367.164 16.25C367.787 15.2967 368.43 14.545 369.091 13.995C369.751 13.5183 370.117 13.2617 370.191 13.225H371.568V23.675H369.366C368.888 21.915 368.173 20.32 367.219 18.89C366.338 17.4967 365.237 16.3417 363.916 15.425C362.631 14.5083 361.145 14.05 359.457 14.05C358.026 14.05 356.796 14.6183 355.769 15.755C354.742 16.8917 354.228 18.34 354.228 20.1C354.228 21.4567 354.613 22.685 355.384 23.785C356.191 24.8483 357.164 25.7833 358.302 26.59C359.476 27.3967 361.054 28.3683 363.035 29.505C365.347 30.825 367.219 31.9984 368.65 33.0251C370.081 34.0518 371.292 35.335 372.283 36.875C373.274 38.3783 373.769 40.12 373.769 42.1C373.769 44.08 373.2 45.895 372.063 47.545C370.925 49.1583 369.219 50.4417 366.944 51.3951C364.668 52.3484 361.898 52.8251 358.632 52.8251ZM376.782 62.175L380.085 61.35V26.15L376.782 25.325V24.5H381.736C383.901 24.5 385.607 25.1967 386.855 26.59C387.332 27.14 387.736 27.8183 388.066 28.625C388.543 27.6717 389.148 26.8467 389.883 26.15C391.534 24.5 393.589 23.675 396.048 23.675C398.213 23.675 400.139 24.2433 401.828 25.38C403.515 26.48 404.855 28.13 405.846 30.33C406.837 32.4933 407.332 35.1334 407.332 38.25C407.332 42.9433 406.231 46.555 404.03 49.085C401.864 51.5784 398.928 52.8251 395.222 52.8251C393.461 52.8251 391.92 52.4583 390.598 51.725C390.048 51.4683 389.478 51.1017 388.892 50.625V61.35L392.195 62.175V63H376.782V62.175ZM393.02 51.175C394.598 51.175 395.809 50.2584 396.653 48.425C397.534 46.5917 397.975 43.2001 397.975 38.25C397.975 33.5201 397.57 30.2383 396.764 28.405C395.993 26.535 395.02 25.6 393.846 25.6C392.451 25.6 391.204 26.3333 390.103 27.8C389.626 28.4233 389.222 29.1567 388.892 30V48.975C389.405 49.4883 389.809 49.855 390.103 50.0751C391.094 50.8083 392.066 51.175 393.02 51.175ZM422.47 52.8251C419.203 52.8251 416.69 52.1283 414.929 50.7351C413.167 49.3418 412.286 47.5634 412.286 45.4001C412.286 43.9701 412.598 42.5583 413.222 41.1651C413.479 40.5051 413.809 39.9 414.213 39.35C415.717 38.9833 417.351 38.6534 419.112 38.3601C423.076 37.7001 426.579 37.2968 429.626 37.1501V35.5C429.626 31.43 429.131 28.625 428.14 27.085C427.149 25.545 425.626 24.775 423.571 24.775C422.8 24.775 422.14 24.8667 421.589 25.05L420.819 25.325V33.5751L420.103 33.7401C419.516 33.8134 419.02 33.85 418.617 33.85C417.369 33.85 416.36 33.4833 415.589 32.75C414.855 31.98 414.488 30.9717 414.488 29.725C414.488 28.0383 415.332 26.6083 417.02 25.435C418.745 24.2617 421.295 23.675 424.672 23.675C427.534 23.675 429.992 24.1883 432.048 25.215C434.14 26.205 435.717 27.5984 436.782 29.3951C437.883 31.1551 438.433 33.1901 438.433 35.5V50.35L441.736 51.175V52H436.782C434.58 52 432.874 51.3218 431.663 49.965C431.148 49.4151 430.745 48.7183 430.452 47.875C429.937 48.7917 429.332 49.6167 428.635 50.35C426.984 52 424.928 52.8251 422.47 52.8251ZM424.672 50.9001C426.029 50.9001 427.259 50.1668 428.36 48.7001C428.763 48.1501 429.186 47.4167 429.626 46.5V38.5251C427.938 38.5251 426.323 38.6167 424.782 38.8C423.644 38.9467 422.873 39.0384 422.47 39.0751C422.286 39.4783 422.103 40.0283 421.92 40.725C421.552 42.1183 421.369 43.4933 421.369 44.85C421.369 46.9033 421.68 48.425 422.305 49.4151C422.928 50.4051 423.717 50.9001 424.672 50.9001ZM459.927 52.8251C455.229 52.8251 451.578 51.5417 448.973 48.975C446.367 46.3717 445.065 42.7967 445.065 38.25C445.065 33.7034 446.367 30.1467 448.973 27.58C451.578 24.9767 455.229 23.675 459.927 23.675C463.303 23.675 465.835 24.2617 467.524 25.435C469.248 26.6083 470.111 28.0383 470.111 29.725C470.111 30.9717 469.725 31.98 468.955 32.75C468.22 33.4833 467.229 33.85 465.982 33.85C465.468 33.85 464.954 33.8134 464.441 33.7401L463.78 33.5751V25.325L463.01 25.05C462.459 24.8667 461.799 24.775 461.028 24.775C458.936 24.775 457.303 25.765 456.129 27.745C454.991 29.725 454.423 33.2267 454.423 38.25C454.423 43.1267 454.991 46.555 456.129 48.535C457.303 50.4783 458.936 51.4501 461.028 51.4501C462.459 51.4501 463.78 51.12 464.991 50.46C466.238 49.7633 467.211 48.865 467.909 47.765C468.642 46.6283 469.01 45.4734 469.01 44.3H470.386C470.386 45.7668 469.946 47.16 469.065 48.48C468.184 49.8 466.954 50.8633 465.377 51.67C463.798 52.44 461.982 52.8251 459.927 52.8251ZM489.117 52.8251C484.419 52.8251 480.768 51.5417 478.162 48.975C475.556 46.3717 474.254 42.7967 474.254 38.25C474.254 35.2801 474.823 32.695 475.961 30.495C477.098 28.295 478.676 26.6083 480.695 25.435C482.749 24.2617 485.098 23.675 487.74 23.675C490.383 23.675 492.695 24.17 494.676 25.16C496.694 26.15 498.235 27.4883 499.3 29.175C500.401 30.825 500.951 32.6583 500.951 34.675C500.951 35.5917 500.859 36.3801 500.676 37.0401L500.401 37.975C498.823 38.305 497.116 38.58 495.282 38.8C491.428 39.35 487.538 39.625 483.612 39.625C483.612 43.8783 484.198 46.9217 485.373 48.7551C486.547 50.5518 488.162 51.4501 490.217 51.4501C491.649 51.4501 492.97 51.12 494.181 50.46C495.428 49.7633 496.401 48.865 497.098 47.765C497.832 46.6283 498.199 45.4734 498.199 44.3H499.575C499.575 45.7668 499.135 47.16 498.254 48.48C497.373 49.8 496.143 50.8633 494.566 51.67C492.988 52.44 491.171 52.8251 489.117 52.8251ZM483.612 38.25C485.96 38.25 487.868 38.1583 489.337 37.975C489.96 37.9383 490.621 37.8468 491.318 37.7001C491.354 37.5168 491.447 37.1134 491.594 36.4901C491.777 35.5734 491.869 34.6017 491.869 33.5751C491.869 30.5317 491.464 28.3133 490.658 26.92C489.85 25.49 488.877 24.775 487.74 24.775C484.988 24.775 483.612 29.2668 483.612 38.25Z" fill="black"/>
<path d="M36.3734 30.9056V13H52.9059C54.3706 13 55.5944 13.4911 56.5772 14.4733C57.5602 15.4554 58.0505 16.681 58.0484 18.15V30.9056H36.3734ZM5.14253 52C3.67778 52 2.45398 51.5089 1.47112 50.5267C0.488254 49.5446 -0.00211595 48.319 6.86256e-06 46.85V18.15C6.86256e-06 16.6832 0.490377 15.4576 1.47112 14.4733C2.45185 13.489 3.67566 12.9979 5.14253 13H33.1892V52H5.14253ZM36.3734 52V34.0944H58.0484V46.85C58.0484 48.3168 57.558 49.5424 56.5772 50.5267C55.5965 51.511 54.3727 52.0021 52.9059 52H36.3734Z" fill="black"/>
</g>
<defs>
<clipPath id="clip0_13_47">
<rect width="502.419" height="66" fill="white"/>
</clipPath>
</defs>
</svg>
