<svg width="503" height="66" viewBox="0 0 503 66" fill="none" xmlns="http://www.w3.org/2000/svg">
<g clip-path="url(#clip0_13_126)">
<path d="M63.3079 51.175L67.7115 49.525L82.8491 12.95H84.5005L100.189 50.35L102.941 51.175V52H96.3354C94.4271 52 92.8675 51.5783 91.6565 50.735C90.4455 49.855 89.5464 48.7183 88.9592 47.325L86.1519 40.725H72.9959L69.3629 49.525L73.4913 51.175V52H63.3079V51.175ZM73.5464 39.35H85.6014L79.5464 24.885L73.5464 39.35ZM118.887 52.825C114.189 52.825 110.538 51.5417 107.933 48.975C105.327 46.3717 104.025 42.7967 104.025 38.25C104.025 35.28 104.593 32.695 105.731 30.495C106.868 28.295 108.446 26.6083 110.465 25.435C112.52 24.2617 114.869 23.675 117.511 23.675C120.153 23.675 122.465 24.17 124.447 25.16C126.464 26.15 128.006 27.4883 129.071 29.175C130.172 30.825 130.722 32.6583 130.722 34.675C130.722 35.5917 130.63 36.38 130.447 37.04L130.172 37.975C128.593 38.305 126.887 38.58 125.052 38.8C121.199 39.35 117.309 39.625 113.383 39.625C113.383 43.8783 113.969 46.9217 115.144 48.755C116.318 50.5517 117.932 51.45 119.988 51.45C121.419 51.45 122.74 51.12 123.951 50.46C125.198 49.7633 126.171 48.865 126.869 47.765C127.602 46.6283 127.97 45.4733 127.97 44.3H129.346C129.346 45.7667 128.906 47.16 128.025 48.48C127.144 49.8 125.914 50.8633 124.337 51.67C122.758 52.44 120.942 52.825 118.887 52.825ZM113.383 38.25C115.731 38.25 117.639 38.1583 119.107 37.975C119.731 37.9383 120.391 37.8467 121.089 37.7C121.125 37.5167 121.217 37.1133 121.364 36.49C121.547 35.5733 121.639 34.6017 121.639 33.575C121.639 30.5317 121.235 28.3133 120.428 26.92C119.621 25.49 118.648 24.775 117.511 24.775C114.759 24.775 113.383 29.2667 113.383 38.25ZM147.762 52.825C145.487 52.825 143.451 52.33 141.652 51.34C140.771 50.8633 140.056 50.35 139.505 49.8C138.919 50.6067 138.276 51.23 137.579 51.67C137.248 51.89 136.882 52.0917 136.478 52.275H135.102V42.925H137.304C137.781 44.465 138.478 45.895 139.395 47.215C141.341 50.0383 143.763 51.45 146.661 51.45C148.203 51.45 149.359 51.0833 150.129 50.35C150.937 49.58 151.34 48.48 151.34 47.05C151.34 45.84 150.79 44.8317 149.689 44.025C148.625 43.1817 146.937 42.155 144.625 40.945C142.643 39.955 141.029 39.075 139.781 38.305C138.57 37.4983 137.524 36.5083 136.643 35.335C135.799 34.125 135.377 32.7133 135.377 31.1C135.377 28.9 136.313 27.1217 138.184 25.765C140.093 24.3717 143.01 23.675 146.937 23.675C148.882 23.675 150.68 24.1883 152.331 25.215C153.139 25.6917 153.836 26.1867 154.423 26.7C154.9 26.04 155.543 25.4167 156.349 24.83C156.974 24.4633 157.34 24.2617 157.45 24.225H158.826V33.575H156.625C156.074 31.9983 155.396 30.5867 154.588 29.34C152.753 26.48 150.57 25.05 148.037 25.05C147.047 25.05 146.203 25.4167 145.505 26.15C144.809 26.8833 144.459 27.8 144.459 28.9C144.459 30.2933 145.047 31.4667 146.221 32.42C147.396 33.3367 149.175 34.4 151.56 35.61C153.506 36.6 155.047 37.48 156.184 38.25C157.359 38.9833 158.35 39.9 159.157 41C160.001 42.1 160.423 43.3833 160.423 44.85C160.423 50.1667 156.203 52.825 147.762 52.825ZM178.865 52.825C176.443 52.825 174.333 52.385 172.535 51.505C170.773 50.625 169.416 49.415 168.461 47.875C167.508 46.335 167.03 44.5933 167.03 42.65V25.875H163.177V24.5H167.03V21.75C167.03 18.45 168.682 16.8 171.984 16.8H175.838V24.5H183.544V25.875H175.838V42.65C175.838 46.0233 176.187 48.3333 176.883 49.58C177.581 50.8267 178.609 51.45 179.966 51.45C181.287 51.45 182.443 50.8083 183.434 49.525C184.425 48.2417 184.92 46.5 184.92 44.3H186.296C186.296 47.0133 185.618 49.1217 184.26 50.625C182.903 52.0917 181.104 52.825 178.865 52.825ZM189.335 51.175L192.638 50.35V15.15L189.335 14.325V13.5H196.491C199.794 13.5 201.445 15.15 201.445 18.45V27.25C201.995 26.5167 202.564 25.93 203.151 25.49C204.73 24.28 206.546 23.675 208.601 23.675C210.656 23.675 212.491 24.115 214.106 24.995C215.757 25.8383 217.041 26.9567 217.959 28.35C218.876 29.7433 219.335 31.21 219.335 32.75V50.35L222.638 51.175V52H215.482C212.179 52 210.528 50.35 210.528 47.05V32.75C210.528 30.44 210.105 28.68 209.261 27.47C208.454 26.2233 207.5 25.6 206.399 25.6C205.005 25.6 203.757 26.3333 202.656 27.8C202.179 28.4233 201.775 29.1567 201.445 30V50.35L204.748 51.175V52H189.335V51.175ZM240.805 52.825C236.108 52.825 232.457 51.5417 229.851 48.975C227.245 46.3717 225.942 42.7967 225.942 38.25C225.942 35.28 226.512 32.695 227.649 30.495C228.787 28.295 230.365 26.6083 232.383 25.435C234.438 24.2617 236.786 23.675 239.429 23.675C242.071 23.675 244.383 24.17 246.364 25.16C248.383 26.15 249.924 27.4883 250.988 29.175C252.089 30.825 252.64 32.6583 252.64 34.675C252.64 35.5917 252.549 36.38 252.364 37.04L252.089 37.975C250.512 38.305 248.805 38.58 246.97 38.8C243.117 39.35 239.227 39.625 235.3 39.625C235.3 43.8783 235.888 46.9217 237.062 48.755C238.237 50.5517 239.851 51.45 241.906 51.45C243.337 51.45 244.658 51.12 245.869 50.46C247.117 49.7633 248.09 48.865 248.786 47.765C249.521 46.6283 249.887 45.4733 249.887 44.3H251.263C251.263 45.7667 250.823 47.16 249.942 48.48C249.062 49.8 247.833 50.8633 246.254 51.67C244.677 52.44 242.86 52.825 240.805 52.825ZM235.3 38.25C237.649 38.25 239.558 38.1583 241.025 37.975C241.649 37.9383 242.31 37.8467 243.007 37.7C243.044 37.5167 243.136 37.1133 243.282 36.49C243.466 35.5733 243.557 34.6017 243.557 33.575C243.557 30.5317 243.154 28.3133 242.346 26.92C241.539 25.49 240.567 24.775 239.429 24.775C236.676 24.775 235.3 29.2667 235.3 38.25ZM271.057 52.825C268.635 52.825 266.524 52.385 264.727 51.505C262.965 50.625 261.607 49.415 260.653 47.875C259.699 46.335 259.222 44.5933 259.222 42.65V25.875H255.369V24.5H259.222V21.75C259.222 18.45 260.874 16.8 264.176 16.8H268.029V24.5H275.736V25.875H268.029V42.65C268.029 46.0233 268.378 48.3333 269.075 49.58C269.772 50.8267 270.8 51.45 272.158 51.45C273.479 51.45 274.635 50.8083 275.626 49.525C276.617 48.2417 277.112 46.5 277.112 44.3H278.488C278.488 47.0133 277.809 49.1217 276.451 50.625C275.093 52.0917 273.295 52.825 271.057 52.825ZM281.526 51.175L284.828 50.35V26.15L281.526 25.325V24.5H288.682C291.984 24.5 293.636 26.15 293.636 29.45V50.35L296.939 51.175V52H281.526V51.175ZM288.682 21.2C287.581 21.2 286.664 20.8333 285.929 20.1C285.196 19.3667 284.828 18.45 284.828 17.35C284.828 16.25 285.196 15.3333 285.929 14.6C286.664 13.8667 287.581 13.5 288.682 13.5C289.783 13.5 290.7 13.8667 291.434 14.6C292.169 15.3333 292.535 16.25 292.535 17.35C292.535 18.45 292.169 19.3667 291.434 20.1C290.7 20.8333 289.783 21.2 288.682 21.2ZM315.096 52.825C310.398 52.825 306.747 51.5417 304.142 48.975C301.535 46.3717 300.233 42.7967 300.233 38.25C300.233 33.7033 301.535 30.1467 304.142 27.58C306.747 24.9767 310.398 23.675 315.096 23.675C318.471 23.675 321.004 24.2617 322.692 25.435C324.416 26.6083 325.279 28.0383 325.279 29.725C325.279 30.9717 324.894 31.98 324.123 32.75C323.389 33.4833 322.398 33.85 321.151 33.85C320.636 33.85 320.123 33.8133 319.609 33.74L318.949 33.575V25.325L318.178 25.05C317.628 24.8667 316.967 24.775 316.197 24.775C314.105 24.775 312.472 25.765 311.298 27.745C310.16 29.725 309.591 33.2267 309.591 38.25C309.591 43.1267 310.16 46.555 311.298 48.535C312.472 50.4783 314.105 51.45 316.197 51.45C317.628 51.45 318.949 51.12 320.16 50.46C321.407 49.7633 322.38 48.865 323.077 47.765C323.811 46.6283 324.178 45.4733 324.178 44.3H325.554C325.554 45.7667 325.114 47.16 324.233 48.48C323.353 49.8 322.123 50.8633 320.545 51.67C318.967 52.44 317.15 52.825 315.096 52.825ZM358.887 52.825C356.281 52.825 353.841 52.2383 351.566 51.065C350.538 50.5517 349.676 49.9467 348.979 49.25C348.464 50.0933 347.823 50.845 347.052 51.505C346.392 51.9817 346.024 52.2383 345.951 52.275H344.575V41.825H346.777C347.328 43.6217 348.098 45.235 349.089 46.665C351.327 49.855 354.226 51.45 357.786 51.45C359.878 51.45 361.547 50.8267 362.795 49.58C364.042 48.3333 364.667 46.665 364.667 44.575C364.667 43.365 364.3 42.2833 363.566 41.33C362.868 40.3767 361.988 39.5333 360.924 38.8C359.859 38.0667 358.373 37.15 356.465 36.05C354.043 34.6933 352.08 33.465 350.575 32.365C349.07 31.265 347.786 29.89 346.722 28.24C345.657 26.5533 345.126 24.5733 345.126 22.3C345.126 20.5033 345.621 18.89 346.612 17.46C347.639 15.9933 349.162 14.8383 351.181 13.995C353.198 13.115 355.676 12.675 358.612 12.675C360.74 12.675 362.869 13.28 364.997 14.49C365.804 14.93 366.612 15.5167 367.419 16.25C368.043 15.2967 368.685 14.545 369.346 13.995C370.006 13.5183 370.373 13.2617 370.447 13.225H371.823V23.675H369.621C369.144 21.915 368.428 20.32 367.474 18.89C366.594 17.4967 365.493 16.3417 364.172 15.425C362.887 14.5083 361.4 14.05 359.713 14.05C358.282 14.05 357.052 14.6183 356.025 15.755C354.997 16.8917 354.484 18.34 354.484 20.1C354.484 21.4567 354.869 22.685 355.639 23.785C356.446 24.8483 357.419 25.7833 358.557 26.59C359.731 27.3967 361.309 28.3683 363.291 29.505C365.603 30.825 367.474 31.9983 368.906 33.025C370.337 34.0517 371.548 35.335 372.539 36.875C373.529 38.3783 374.025 40.12 374.025 42.1C374.025 44.08 373.455 45.895 372.318 47.545C371.18 49.1583 369.474 50.4417 367.199 51.395C364.923 52.3483 362.153 52.825 358.887 52.825ZM377.037 62.175L380.34 61.35V26.15L377.037 25.325V24.5H381.991C384.156 24.5 385.863 25.1967 387.111 26.59C387.587 27.14 387.991 27.8183 388.322 28.625C388.798 27.6717 389.404 26.8467 390.138 26.15C391.79 24.5 393.844 23.675 396.303 23.675C398.468 23.675 400.395 24.2433 402.083 25.38C403.771 26.48 405.111 28.13 406.102 30.33C407.092 32.4933 407.588 35.1333 407.588 38.25C407.588 42.9433 406.487 46.555 404.285 49.085C402.119 51.5783 399.184 52.825 395.478 52.825C393.716 52.825 392.175 52.4583 390.854 51.725C390.303 51.4683 389.734 51.1017 389.147 50.625V61.35L392.45 62.175V63H377.037V62.175ZM393.276 51.175C394.853 51.175 396.064 50.2583 396.909 48.425C397.79 46.5917 398.23 43.2 398.23 38.25C398.23 33.52 397.826 30.2383 397.019 28.405C396.248 26.535 395.275 25.6 394.102 25.6C392.706 25.6 391.459 26.3333 390.358 27.8C389.881 28.4233 389.478 29.1567 389.147 30V48.975C389.661 49.4883 390.064 49.855 390.358 50.075C391.349 50.8083 392.321 51.175 393.276 51.175ZM422.725 52.825C419.459 52.825 416.946 52.1283 415.184 50.735C413.423 49.3417 412.542 47.5633 412.542 45.4C412.542 43.97 412.853 42.5583 413.478 41.165C413.734 40.505 414.064 39.9 414.468 39.35C415.973 38.9833 417.606 38.6533 419.368 38.36C423.331 37.7 426.835 37.2967 429.881 37.15V35.5C429.881 31.43 429.386 28.625 428.395 27.085C427.404 25.545 425.881 24.775 423.826 24.775C423.056 24.775 422.395 24.8667 421.845 25.05L421.074 25.325V33.575L420.358 33.74C419.771 33.8133 419.275 33.85 418.872 33.85C417.624 33.85 416.615 33.4833 415.845 32.75C415.11 31.98 414.744 30.9717 414.744 29.725C414.744 28.0383 415.587 26.6083 417.276 25.435C419 24.2617 421.55 23.675 424.927 23.675C427.79 23.675 430.248 24.1883 432.303 25.215C434.395 26.205 435.972 27.5983 437.037 29.395C438.138 31.155 438.689 33.19 438.689 35.5V50.35L441.991 51.175V52H437.037C434.835 52 433.129 51.3217 431.918 49.965C431.404 49.415 431 48.7183 430.707 47.875C430.193 48.7917 429.587 49.6167 428.891 50.35C427.239 52 425.183 52.825 422.725 52.825ZM424.927 50.9C426.284 50.9 427.514 50.1667 428.615 48.7C429.019 48.15 429.441 47.4167 429.881 46.5V38.525C428.193 38.525 426.579 38.6167 425.037 38.8C423.899 38.9467 423.129 39.0383 422.725 39.075C422.541 39.4783 422.358 40.0283 422.175 40.725C421.808 42.1183 421.624 43.4933 421.624 44.85C421.624 46.9033 421.936 48.425 422.56 49.415C423.184 50.405 423.972 50.9 424.927 50.9ZM460.183 52.825C455.485 52.825 451.834 51.5417 449.228 48.975C446.622 46.3717 445.32 42.7967 445.32 38.25C445.32 33.7033 446.622 30.1467 449.228 27.58C451.834 24.9767 455.485 23.675 460.183 23.675C463.558 23.675 466.091 24.2617 467.779 25.435C469.503 26.6083 470.366 28.0383 470.366 29.725C470.366 30.9717 469.981 31.98 469.21 32.75C468.475 33.4833 467.485 33.85 466.238 33.85C465.723 33.85 465.21 33.8133 464.696 33.74L464.036 33.575V25.325L463.265 25.05C462.715 24.8667 462.054 24.775 461.284 24.775C459.192 24.775 457.558 25.765 456.384 27.745C455.246 29.725 454.678 33.2267 454.678 38.25C454.678 43.1267 455.246 46.555 456.384 48.535C457.558 50.4783 459.192 51.45 461.284 51.45C462.715 51.45 464.036 51.12 465.247 50.46C466.494 49.7633 467.467 48.865 468.164 47.765C468.898 46.6283 469.265 45.4733 469.265 44.3H470.641C470.641 45.7667 470.201 47.16 469.32 48.48C468.439 49.8 467.209 50.8633 465.632 51.67C464.054 52.44 462.237 52.825 460.183 52.825ZM489.372 52.825C484.674 52.825 481.023 51.5417 478.418 48.975C475.812 46.3717 474.51 42.7967 474.51 38.25C474.51 35.28 475.078 32.695 476.216 30.495C477.353 28.295 478.931 26.6083 480.95 25.435C483.005 24.2617 485.354 23.675 487.996 23.675C490.638 23.675 492.95 24.17 494.932 25.16C496.949 26.15 498.49 27.4883 499.555 29.175C500.656 30.825 501.207 32.6583 501.207 34.675C501.207 35.5917 501.115 36.38 500.932 37.04L500.656 37.975C499.078 38.305 497.372 38.58 495.537 38.8C491.684 39.35 487.794 39.625 483.867 39.625C483.867 43.8783 484.454 46.9217 485.629 48.755C486.803 50.5517 488.417 51.45 490.473 51.45C491.904 51.45 493.225 51.12 494.436 50.46C495.683 49.7633 496.656 48.865 497.354 47.765C498.087 46.6283 498.454 45.4733 498.454 44.3H499.831C499.831 45.7667 499.39 47.16 498.51 48.48C497.629 49.8 496.399 50.8633 494.821 51.67C493.243 52.44 491.427 52.825 489.372 52.825ZM483.867 38.25C486.215 38.25 488.124 38.1583 489.592 37.975C490.216 37.9383 490.876 37.8467 491.574 37.7C491.61 37.5167 491.702 37.1133 491.849 36.49C492.032 35.5733 492.124 34.6017 492.124 33.575C492.124 30.5317 491.72 28.3133 490.913 26.92C490.106 25.49 489.133 24.775 487.996 24.775C485.243 24.775 483.867 29.2667 483.867 38.25Z" fill="white"/>
<path d="M36.6288 30.9056V13H53.1613C54.626 13 55.8498 13.4911 56.8326 14.4733C57.8155 15.4554 58.3058 16.681 58.3037 18.15V30.9056H36.6288ZM5.3979 52C3.93316 52 2.70936 51.5089 1.72649 50.5267C0.743625 49.5446 0.253255 48.319 0.255378 46.85V18.15C0.255378 16.6832 0.745748 15.4576 1.72649 14.4733C2.70722 13.489 3.93103 12.9979 5.3979 13H33.4445V52H5.3979ZM36.6288 52V34.0944H58.3037V46.85C58.3037 48.3168 57.8133 49.5424 56.8326 50.5267C55.8519 51.511 54.6281 52.0021 53.1613 52H36.6288Z" fill="white"/>
</g>
<defs>
<clipPath id="clip0_13_126">
<rect width="502.419" height="66" fill="white" transform="translate(0.255371)"/>
</clipPath>
</defs>
</svg>
